<svg width="15" height="14" viewBox="0 0 15 14" fill="none" xmlns="http://www.w3.org/2000/svg">
<path d="M8 1.125C10.6925 1.125 12.875 3.3075 12.875 6C12.875 8.06 11.4275 10.305 8.57 12.759C8.41111 12.8955 8.20853 12.9705 7.99906 12.9703C7.7896 12.9701 7.58715 12.8948 7.4285 12.758L7.2395 12.594C4.5085 10.204 3.125 8.014 3.125 6C3.125 3.3075 5.3075 1.125 8 1.125ZM8 4.125C7.50272 4.125 7.02581 4.32254 6.67418 4.67418C6.32254 5.02581 6.125 5.50272 6.125 6C6.125 6.49728 6.32254 6.9742 6.67418 7.32583C7.02581 7.67746 7.50272 7.875 8 7.875C8.49728 7.875 8.9742 7.67746 9.32583 7.32583C9.67746 6.9742 9.875 6.49728 9.875 6C9.875 5.50272 9.67746 5.02581 9.32583 4.67418C8.9742 4.32254 8.49728 4.125 8 4.125Z" fill="white"/>
<path d="M7 1.125C9.6925 1.125 11.875 3.3075 11.875 6C11.875 8.06 10.4275 10.305 7.57 12.759C7.41111 12.8955 7.20853 12.9705 6.99906 12.9703C6.7896 12.9701 6.58715 12.8948 6.4285 12.758L6.2395 12.594C3.5085 10.204 2.125 8.014 2.125 6C2.125 3.3075 4.3075 1.125 7 1.125ZM7 4.125C6.50272 4.125 6.02581 4.32254 5.67418 4.67418C5.32254 5.02581 5.125 5.50272 5.125 6C5.125 6.49728 5.32254 6.9742 5.67418 7.32583C6.02581 7.67746 6.50272 7.875 7 7.875C7.49728 7.875 7.9742 7.67746 8.32583 7.32583C8.67746 6.9742 8.875 6.49728 8.875 6C8.875 5.50272 8.67746 5.02581 8.32583 4.67418C7.9742 4.32254 7.49728 4.125 7 4.125Z" fill="#FF0000"/>
</svg>
