<svg width="23" height="23" viewBox="0 0 23 23" fill="none" xmlns="http://www.w3.org/2000/svg">
<path d="M2.97082 10.8292L6.42082 13.9917L5.46248 18.4C5.36665 18.975 5.55832 19.55 6.03748 19.8375C6.22915 20.0292 6.51665 20.125 6.80415 20.125C6.99582 20.125 7.18748 20.125 7.37915 20.0292C7.37915 20.0292 7.47498 20.0292 7.47498 19.9333L11.4041 17.7292L15.3333 19.9333C15.3333 19.9333 15.4292 19.9333 15.4292 20.0292C15.9083 20.2208 16.4833 20.2208 16.8667 19.9333C17.3458 19.6458 17.5375 19.0708 17.4417 18.4958L16.4833 14.0875C16.8667 13.8 17.4416 13.225 18.0166 12.65L19.8375 11.0208L19.9333 10.925C20.3166 10.5417 20.4125 9.96667 20.2208 9.4875C20.0291 9.00833 19.6458 8.625 19.0708 8.52917H18.975L14.4708 8.05L12.65 3.92917C12.65 3.92917 12.65 3.83333 12.5542 3.83333C12.4583 3.1625 11.9791 2.875 11.5 2.875C11.0208 2.875 10.5416 3.1625 10.2541 3.64167C10.2541 3.64167 10.2542 3.7375 10.1583 3.7375L8.33748 7.85833L3.83332 8.3375H3.73748C3.25832 8.43333 2.77915 8.81667 2.58748 9.29583C2.49165 9.87083 2.58748 10.4458 2.97082 10.8292V10.8292Z" fill="#FFC167"/>
</svg>
